<mxfile host="app.diagrams.net" modified="2023-12-18T03:40:59.090Z" agent="Mozilla/5.0 (Windows NT 10.0; Win64; x64) AppleWebKit/537.36 (KHTML, like Gecko) Chrome/120.0.0.0 Safari/537.36" etag="8yZVTugfm6ZkA0I71mVB" version="22.1.11" type="device">
  <diagram name="PÃ¡gina-1" id="TGAzh8cMvquLd3ZhAjtk">
    <mxGraphModel dx="989" dy="546" grid="1" gridSize="10" guides="1" tooltips="1" connect="1" arrows="1" fold="1" page="1" pageScale="1" pageWidth="827" pageHeight="1169" math="0" shadow="0">
      <root>
        <mxCell id="0" />
        <mxCell id="1" parent="0" />
        <mxCell id="WP5j0QQxefT530Egr5wN-1" value="" style="whiteSpace=wrap;html=1;aspect=fixed;" vertex="1" parent="1">
          <mxGeometry x="184" y="170" width="460" height="460" as="geometry" />
        </mxCell>
        <mxCell id="WP5j0QQxefT530Egr5wN-2" value="Usuario" style="shape=umlActor;verticalLabelPosition=bottom;verticalAlign=top;html=1;outlineConnect=0;" vertex="1" parent="1">
          <mxGeometry x="70" y="360" width="40" height="80" as="geometry" />
        </mxCell>
        <mxCell id="WP5j0QQxefT530Egr5wN-3" value="Iniciar Juego" style="ellipse;whiteSpace=wrap;html=1;" vertex="1" parent="1">
          <mxGeometry x="240" y="200" width="110" height="40" as="geometry" />
        </mxCell>
        <mxCell id="WP5j0QQxefT530Egr5wN-4" value="Generar Tablero" style="ellipse;whiteSpace=wrap;html=1;" vertex="1" parent="1">
          <mxGeometry x="440" y="180" width="110" height="40" as="geometry" />
        </mxCell>
        <mxCell id="WP5j0QQxefT530Egr5wN-5" value="" style="endArrow=none;html=1;rounded=0;entryX=0;entryY=1;entryDx=0;entryDy=0;" edge="1" parent="1" source="WP5j0QQxefT530Egr5wN-2" target="WP5j0QQxefT530Egr5wN-3">
          <mxGeometry width="50" height="50" relative="1" as="geometry">
            <mxPoint x="390" y="430" as="sourcePoint" />
            <mxPoint x="440" y="380" as="targetPoint" />
          </mxGeometry>
        </mxCell>
        <mxCell id="WP5j0QQxefT530Egr5wN-8" value="" style="endArrow=classic;html=1;rounded=0;exitX=1;exitY=0.5;exitDx=0;exitDy=0;entryX=0;entryY=0.5;entryDx=0;entryDy=0;" edge="1" parent="1" source="WP5j0QQxefT530Egr5wN-3" target="WP5j0QQxefT530Egr5wN-4">
          <mxGeometry width="50" height="50" relative="1" as="geometry">
            <mxPoint x="390" y="430" as="sourcePoint" />
            <mxPoint x="440" y="380" as="targetPoint" />
          </mxGeometry>
        </mxCell>
        <mxCell id="WP5j0QQxefT530Egr5wN-9" value="Include" style="edgeLabel;html=1;align=center;verticalAlign=middle;resizable=0;points=[];" vertex="1" connectable="0" parent="WP5j0QQxefT530Egr5wN-8">
          <mxGeometry x="-0.0667" y="2" relative="1" as="geometry">
            <mxPoint as="offset" />
          </mxGeometry>
        </mxCell>
        <mxCell id="WP5j0QQxefT530Egr5wN-10" value="Desbloquear celda" style="ellipse;whiteSpace=wrap;html=1;" vertex="1" parent="1">
          <mxGeometry x="250" y="410" width="110" height="40" as="geometry" />
        </mxCell>
        <mxCell id="WP5j0QQxefT530Egr5wN-11" value="Marcar Celda" style="ellipse;whiteSpace=wrap;html=1;" vertex="1" parent="1">
          <mxGeometry x="250" y="280" width="110" height="40" as="geometry" />
        </mxCell>
        <mxCell id="WP5j0QQxefT530Egr5wN-12" value="Actualizar tablero" style="ellipse;whiteSpace=wrap;html=1;" vertex="1" parent="1">
          <mxGeometry x="440" y="310" width="110" height="40" as="geometry" />
        </mxCell>
        <mxCell id="WP5j0QQxefT530Egr5wN-13" value="" style="endArrow=none;html=1;rounded=0;entryX=0;entryY=0.5;entryDx=0;entryDy=0;" edge="1" parent="1" source="WP5j0QQxefT530Egr5wN-2" target="WP5j0QQxefT530Egr5wN-10">
          <mxGeometry width="50" height="50" relative="1" as="geometry">
            <mxPoint x="120" y="389" as="sourcePoint" />
            <mxPoint x="266" y="234" as="targetPoint" />
          </mxGeometry>
        </mxCell>
        <mxCell id="WP5j0QQxefT530Egr5wN-14" value="" style="endArrow=none;html=1;rounded=0;entryX=0;entryY=0.5;entryDx=0;entryDy=0;" edge="1" parent="1" source="WP5j0QQxefT530Egr5wN-2" target="WP5j0QQxefT530Egr5wN-11">
          <mxGeometry width="50" height="50" relative="1" as="geometry">
            <mxPoint x="120" y="401" as="sourcePoint" />
            <mxPoint x="280" y="330" as="targetPoint" />
          </mxGeometry>
        </mxCell>
        <mxCell id="WP5j0QQxefT530Egr5wN-16" value="" style="endArrow=classic;html=1;rounded=0;entryX=0;entryY=0.5;entryDx=0;entryDy=0;exitX=1;exitY=0.5;exitDx=0;exitDy=0;" edge="1" parent="1" source="WP5j0QQxefT530Egr5wN-10" target="WP5j0QQxefT530Egr5wN-28">
          <mxGeometry width="50" height="50" relative="1" as="geometry">
            <mxPoint x="290" y="340" as="sourcePoint" />
            <mxPoint x="340" y="290" as="targetPoint" />
          </mxGeometry>
        </mxCell>
        <mxCell id="WP5j0QQxefT530Egr5wN-19" value="Include" style="edgeLabel;html=1;align=center;verticalAlign=middle;resizable=0;points=[];" vertex="1" connectable="0" parent="WP5j0QQxefT530Egr5wN-16">
          <mxGeometry x="-0.4079" relative="1" as="geometry">
            <mxPoint x="5" y="2" as="offset" />
          </mxGeometry>
        </mxCell>
        <mxCell id="WP5j0QQxefT530Egr5wN-17" value="" style="endArrow=classic;html=1;rounded=0;entryX=0;entryY=0;entryDx=0;entryDy=0;exitX=1;exitY=0.5;exitDx=0;exitDy=0;" edge="1" parent="1" source="WP5j0QQxefT530Egr5wN-11" target="WP5j0QQxefT530Egr5wN-12">
          <mxGeometry width="50" height="50" relative="1" as="geometry">
            <mxPoint x="390" y="330" as="sourcePoint" />
            <mxPoint x="440" y="356" as="targetPoint" />
          </mxGeometry>
        </mxCell>
        <mxCell id="WP5j0QQxefT530Egr5wN-18" value="Include" style="edgeLabel;html=1;align=center;verticalAlign=middle;resizable=0;points=[];" vertex="1" connectable="0" parent="WP5j0QQxefT530Egr5wN-17">
          <mxGeometry x="0.0611" y="1" relative="1" as="geometry">
            <mxPoint as="offset" />
          </mxGeometry>
        </mxCell>
        <mxCell id="WP5j0QQxefT530Egr5wN-20" value="Termina el juego" style="ellipse;whiteSpace=wrap;html=1;" vertex="1" parent="1">
          <mxGeometry x="290" y="530" width="110" height="40" as="geometry" />
        </mxCell>
        <mxCell id="WP5j0QQxefT530Egr5wN-21" value="" style="endArrow=classic;html=1;rounded=0;exitX=0;exitY=0;exitDx=0;exitDy=0;" edge="1" parent="1" source="WP5j0QQxefT530Egr5wN-20" target="WP5j0QQxefT530Egr5wN-2">
          <mxGeometry width="50" height="50" relative="1" as="geometry">
            <mxPoint x="200" y="490" as="sourcePoint" />
            <mxPoint x="250" y="440" as="targetPoint" />
          </mxGeometry>
        </mxCell>
        <mxCell id="WP5j0QQxefT530Egr5wN-25" style="edgeStyle=orthogonalEdgeStyle;rounded=0;orthogonalLoop=1;jettySize=auto;html=1;exitX=0.5;exitY=1;exitDx=0;exitDy=0;" edge="1" parent="1" source="WP5j0QQxefT530Egr5wN-10" target="WP5j0QQxefT530Egr5wN-10">
          <mxGeometry relative="1" as="geometry" />
        </mxCell>
        <mxCell id="WP5j0QQxefT530Egr5wN-28" value="Verifica si es una bomba" style="ellipse;whiteSpace=wrap;html=1;" vertex="1" parent="1">
          <mxGeometry x="440" y="420" width="110" height="40" as="geometry" />
        </mxCell>
        <mxCell id="WP5j0QQxefT530Egr5wN-30" value="" style="endArrow=classic;html=1;rounded=0;entryX=0;entryY=1;entryDx=0;entryDy=0;exitX=1;exitY=0;exitDx=0;exitDy=0;" edge="1" parent="1" source="WP5j0QQxefT530Egr5wN-20" target="WP5j0QQxefT530Egr5wN-28">
          <mxGeometry width="50" height="50" relative="1" as="geometry">
            <mxPoint x="370" y="440" as="sourcePoint" />
            <mxPoint x="460" y="450" as="targetPoint" />
          </mxGeometry>
        </mxCell>
        <mxCell id="WP5j0QQxefT530Egr5wN-31" value="Extends" style="edgeLabel;html=1;align=center;verticalAlign=middle;resizable=0;points=[];" vertex="1" connectable="0" parent="WP5j0QQxefT530Egr5wN-30">
          <mxGeometry x="-0.4079" relative="1" as="geometry">
            <mxPoint x="5" y="2" as="offset" />
          </mxGeometry>
        </mxCell>
        <mxCell id="WP5j0QQxefT530Egr5wN-33" value="" style="endArrow=classic;html=1;rounded=0;exitX=1;exitY=0;exitDx=0;exitDy=0;entryX=0.5;entryY=1;entryDx=0;entryDy=0;" edge="1" parent="1" source="WP5j0QQxefT530Egr5wN-10" target="WP5j0QQxefT530Egr5wN-12">
          <mxGeometry width="50" height="50" relative="1" as="geometry">
            <mxPoint x="370" y="440" as="sourcePoint" />
            <mxPoint x="460" y="350" as="targetPoint" />
          </mxGeometry>
        </mxCell>
        <mxCell id="WP5j0QQxefT530Egr5wN-34" value="Include" style="edgeLabel;html=1;align=center;verticalAlign=middle;resizable=0;points=[];" vertex="1" connectable="0" parent="WP5j0QQxefT530Egr5wN-33">
          <mxGeometry x="-0.4079" relative="1" as="geometry">
            <mxPoint x="25" y="-16" as="offset" />
          </mxGeometry>
        </mxCell>
      </root>
    </mxGraphModel>
  </diagram>
</mxfile>
